<svg xmlns="http://www.w3.org/2000/svg" xmlns:xlink="http://www.w3.org/1999/xlink" width="500" zoomAndPan="magnify" viewBox="0 0 375 374.999991" height="500" preserveAspectRatio="xMidYMid meet" version="1.0"><defs><clipPath id="a9f83eb924"><path d="M 10.027344 167 L 364.777344 167 L 364.777344 279.179688 L 10.027344 279.179688 Z M 10.027344 167 " clip-rule="nonzero"/></clipPath><clipPath id="edaf0fc294"><path d="M 105 96.179688 L 270 96.179688 L 270 164 L 105 164 Z M 105 96.179688 " clip-rule="nonzero"/></clipPath></defs><rect x="-37.5" width="450" fill="#ffffff" y="-37.499999" height="449.999989" fill-opacity="1"/><rect x="-37.5" width="450" fill="#ffffff" y="-37.499999" height="449.999989" fill-opacity="1"/><rect x="-37.5" width="450" fill="#ffffff" y="-37.499999" height="449.999989" fill-opacity="1"/><g clip-path="url(#a9f83eb924)"><path fill="#3485e4" d="M 187.585938 275.035156 C 187.585938 275.035156 279.582031 247.167969 365.335938 279.015625 L 336.898438 243.128906 C 336.898438 243.128906 311.507812 235.757812 280.636719 235.589844 C 253.398438 235.433594 221.894531 240.886719 199.796875 261.949219 C 199.796875 261.949219 254.597656 226.402344 324.449219 246.882812 L 326.246094 249.453125 C 286.757812 239.8125 262.546875 247.308594 262.546875 247.308594 C 293.519531 245.855469 317.878906 251.46875 330.257812 255.191406 L 334.386719 261.101562 C 334.386719 261.101562 257.152344 231.53125 187.585938 275.035156 Z M 94.539062 235.597656 C 63.667969 235.765625 38.277344 243.128906 38.277344 243.128906 L 9.835938 279.015625 C 95.589844 247.167969 187.585938 275.035156 187.585938 275.035156 C 118.023438 231.53125 40.785156 261.101562 40.785156 261.101562 L 44.917969 255.191406 C 57.296875 251.46875 81.65625 245.851562 112.625 247.308594 C 112.625 247.308594 88.417969 239.8125 48.929688 249.453125 L 50.726562 246.882812 C 120.574219 226.402344 175.378906 261.949219 175.378906 261.949219 C 153.28125 240.894531 121.777344 235.4375 94.539062 235.597656 Z M 311.683594 204.117188 C 243.386719 204.109375 194.121094 256.550781 194.121094 256.550781 C 250.625 209.632812 311.402344 211.5625 311.402344 211.5625 L 307.382812 225.839844 C 284.894531 225.433594 263.011719 231.871094 263.011719 231.871094 C 291.320312 227.441406 314.507812 231.808594 314.507812 231.808594 L 321.894531 204.507812 C 318.445312 204.242188 315.042969 204.117188 311.683594 204.117188 Z M 63.488281 204.117188 C 60.132812 204.117188 56.726562 204.242188 53.28125 204.507812 L 60.660156 231.808594 C 60.660156 231.808594 83.851562 227.441406 112.164062 231.871094 C 112.164062 231.871094 90.28125 225.433594 67.789062 225.839844 L 63.773438 211.5625 C 63.773438 211.5625 124.550781 209.632812 181.054688 256.550781 C 181.058594 256.550781 131.789062 204.109375 63.488281 204.117188 Z M 280.28125 167.125 C 218.039062 193.667969 193.746094 250.371094 193.746094 250.371094 C 220.058594 203.808594 267.660156 181.765625 267.660156 181.765625 L 264.253906 198.253906 L 234.300781 218.199219 C 256.382812 207.339844 275.859375 200.101562 275.859375 200.101562 Z M 94.902344 167.125 L 99.316406 200.101562 C 99.316406 200.101562 118.789062 207.339844 140.882812 218.199219 L 110.925781 198.253906 L 107.523438 181.765625 C 107.523438 181.765625 155.128906 203.808594 181.445312 250.371094 C 181.4375 250.371094 157.140625 193.667969 94.902344 167.125 Z M 94.902344 167.125 " fill-opacity="1" fill-rule="nonzero"/></g><g clip-path="url(#edaf0fc294)"><path fill="#3485e4" d="M 187.585938 96.359375 C 187.585938 96.359375 158.324219 130.511719 105.523438 163.1875 C 105.523438 163.1875 154.886719 145.5625 187.585938 118.761719 C 220.277344 145.5625 269.652344 163.1875 269.652344 163.1875 C 216.851562 130.511719 187.585938 96.359375 187.585938 96.359375 Z M 187.585938 96.359375 " fill-opacity="1" fill-rule="nonzero"/></g><path fill="#3485e4" d="M 190.90625 175.253906 L 190.90625 192.308594 L 218.574219 192.308594 L 218.574219 175.253906 Z M 156.609375 175.253906 L 156.609375 192.308594 L 184.273438 192.308594 L 184.273438 175.253906 Z M 190.90625 151.558594 L 190.90625 168.613281 L 218.574219 168.613281 L 218.574219 151.558594 Z M 156.609375 151.558594 L 156.609375 168.613281 L 184.273438 168.613281 L 184.273438 151.558594 Z M 156.609375 151.558594 " fill-opacity="1" fill-rule="nonzero"/></svg>